<svg width="901" height="872" viewBox="0 0 901 872" fill="none" xmlns="http://www.w3.org/2000/svg">
<path fill-rule="evenodd" clip-rule="evenodd" d="M210 25C210 11.1929 221.193 0 235 0H283C296.807 0 308 11.1929 308 25V73C308 86.8071 296.807 98 283 98H235C221.193 98 210 86.8071 210 73V25ZM280.267 205.074V301.056C277.412 314.585 266.513 325.147 252.808 327.506H180.073C151.907 327.506 129.073 350.34 129.073 378.506V518.415C129.073 546.581 151.907 569.415 180.073 569.415H252.326C266.257 571.606 277.378 582.258 280.267 595.944V743.801C280.267 814.494 337.575 871.801 408.267 871.801H772.158C842.851 871.801 900.158 814.494 900.158 743.801V379.91C900.158 309.218 842.85 251.91 772.158 251.91H553.51C537.046 250.718 523.833 237.804 522.176 221.473V205.074C522.176 203.532 522.117 202.005 522 200.493V73.9998H522V200.486C519.659 170.046 494.217 146.074 463.176 146.074H339.267C306.682 146.074 280.267 172.489 280.267 205.074ZM105.719 150H85.9999V150H105.72C112.61 144.374 121.411 141 131 141H202.193C211.782 141 220.583 144.374 227.473 150H281V150H227.474C236.457 157.335 242.193 168.498 242.193 181V252.193C242.193 274.284 224.284 292.193 202.193 292.193H131C108.909 292.193 91 274.284 91 252.193V181C91 168.498 96.7358 157.335 105.719 150ZM25 319C11.1929 319 0 330.193 0 344V387C0 400.807 11.1929 412 25 412H67C80.8071 412 92 400.807 92 387V344C92 330.193 80.8071 319 67 319H25ZM11 82C11 71.5066 19.5066 63 30 63H65C75.4934 63 84 71.5066 84 82V117C84 127.493 75.4934 136 65 136H30C19.5066 136 11 127.493 11 117V82ZM439.02 697.929L538.489 552.551L446.579 418.222H537.295L583.846 486.259L635.571 410.662H726.286L629.204 552.551L733.846 705.488H643.13L583.846 618.844L529.736 697.929H439.02Z" fill="url(#paint0_linear_594_34)"/>
<defs>
<linearGradient id="paint0_linear_594_34" x1="877.479" y1="871.799" x2="83.7163" y2="108.275" gradientUnits="userSpaceOnUse">
<stop stop-color="#16D201"/>
<stop offset="1" stop-color="#FFF700"/>
</linearGradient>
</defs>
</svg>
